<svg width="56" height="56" viewBox="0 0 56 56" fill="none" xmlns="http://www.w3.org/2000/svg">
<g clip-path="url(#clip0_537_64)">
<path d="M56 44.2965V6.45651H48.4531V2.56604H38.6094V6.45651H0V44.2965H21.4922V47.3628C21.4922 48.9007 20.241 50.1518 18.7031 50.1518V53.4331H37.2969V50.1518C35.759 50.1518 34.5078 48.9007 34.5078 47.3628V44.2965H56ZM41.8906 27.3471H45.1719V30.1675L43.5306 31.8082L41.8906 30.1677V27.3471ZM45.1719 5.84729V24.0659H41.8906V5.84729H45.1719ZM3.28125 9.73776H38.6094V31.5266L43.5298 36.4486L48.4531 31.5269V9.73776H52.7188V41.0153H3.28125V9.73776ZM31.906 50.1518H24.0939C24.528 49.3162 24.7733 48.3677 24.7733 47.3628V44.2965H31.2265V47.3628C31.2266 48.3677 31.4719 49.3162 31.906 50.1518Z" fill="#F94D00"/>
<path d="M15.8594 33.582H19.1406V36.8633H15.8594V33.582Z" fill="#F94D00"/>
<path d="M22.4219 33.582H25.7031V36.8633H22.4219V33.582Z" fill="#F94D00"/>
<path d="M28.9844 33.582H32.2656V36.8633H28.9844V33.582Z" fill="#F94D00"/>
<path d="M9.29688 33.582H12.5781V36.8633H9.29688V33.582Z" fill="#F94D00"/>
<path d="M11.975 16.0622L8.12012 21.4621L11.975 26.8621L14.6456 24.9557L12.1518 21.4621L14.6456 17.9687L11.975 16.0622Z" fill="#F94D00"/>
<path d="M26.918 17.9686L29.4118 21.4621L26.918 24.9556L29.5886 26.862L33.4435 21.4621L29.5886 16.0621L26.918 17.9686Z" fill="#F94D00"/>
<path d="M17.4609 27.1202L20.9474 14.376L24.1139 15.2422L20.6273 27.9865L17.4609 27.1202Z" fill="#F94D00"/>
</g>
<defs>
<clipPath id="clip0_537_64">
<rect width="56" height="56" fill="white"/>
</clipPath>
</defs>
</svg>
