<svg width="56" height="56" viewBox="0 0 56 56" fill="none" xmlns="http://www.w3.org/2000/svg">
<g clip-path="url(#clip0_537_95)">
<path d="M51.6341 28C51.6341 26.6191 51.5142 25.2411 51.277 23.8884L56 21.1937L47.8665 7.20278L43.1948 9.89997C41.0825 8.12766 38.6573 6.72547 36.0778 5.78473V0.396484H19.9222V5.78473C17.3427 6.72547 14.9177 8.12766 12.8052 9.89997L8.13345 7.20278L0 21.1937L4.72314 23.8884C4.48591 25.241 4.36603 26.6191 4.36603 28C4.36603 29.3809 4.48591 30.759 4.72314 32.1116L0 34.8063L8.13345 48.7972L12.8052 46.1C14.9177 47.8723 17.3427 49.2745 19.9222 50.2153V55.6035H36.0777V50.2153C38.6572 49.2745 41.0822 47.8723 43.1947 46.1L47.8664 48.7972L56 34.8063L51.2769 32.1116C51.5141 30.7589 51.6341 29.3809 51.6341 28ZM51.462 36.0072L46.6655 44.315L42.7619 42.0614L41.8741 42.889C39.6215 44.989 36.884 46.5718 33.9575 47.4662L32.7964 47.821V52.3223H23.2035V47.821L22.0423 47.4662C19.1159 46.5718 16.3784 44.989 14.1258 42.889L13.2379 42.0614L9.33439 44.315L4.53797 36.0072L8.435 33.7574L8.16353 32.5756C7.82097 31.0838 7.64717 29.5444 7.64717 28C7.64717 26.4556 7.82086 24.9162 8.16353 23.4244L8.435 22.2426L4.53797 19.9928L9.3345 11.685L13.238 13.9386L14.1259 13.111C16.3786 11.011 19.1161 9.42824 22.0425 8.53377L23.2036 8.17895V3.67773H32.7965V8.17895L33.9577 8.53377C36.8841 9.42824 39.6216 11.011 41.8742 13.111L42.762 13.9386L46.6656 11.685L51.4621 19.9928L47.5652 22.2426L47.8366 23.4244C48.1791 24.9163 48.3529 26.4557 48.3529 28C48.3529 29.5443 48.1792 31.0837 47.8366 32.5756L47.5652 33.7574L51.462 36.0072Z" fill="#F94D00"/>
<path d="M28 12.3594C19.3757 12.3594 12.3594 19.3757 12.3594 28C12.3594 36.6243 19.3757 43.6406 28 43.6406C36.6243 43.6406 43.6406 36.6243 43.6406 28C43.6406 19.3757 36.6243 12.3594 28 12.3594ZM37.818 35.498L35.9621 33.642L33.6419 35.9622L35.4979 37.8182C33.8276 39.0967 31.8234 39.9595 29.6405 40.2503V37.6195H26.3593V40.2503C24.1765 39.9595 22.1722 39.0967 20.5019 37.8182L22.3579 35.9622L20.0377 33.642L18.1817 35.498C16.9031 33.8277 16.0404 31.8235 15.7496 29.6406H18.3804V26.3594H15.7496C16.0404 24.1766 16.9031 22.1723 18.1817 20.502L20.0377 22.358L22.3579 20.0378L20.5019 18.1818C22.5831 16.5888 25.1827 15.6406 28 15.6406C30.8173 15.6406 33.4169 16.5888 35.498 18.182L33.642 20.0379L35.9622 22.3581L37.8182 20.5021C39.0967 22.1724 39.9595 24.1766 40.2503 26.3595H37.6195V29.6407H40.2503C39.9595 31.8234 39.0966 33.8277 37.818 35.498Z" fill="#F94D00"/>
<path d="M29.6406 19.9062H26.3594V28.6795L29.3009 31.621L31.621 29.3009L29.6406 27.3205V19.9062Z" fill="#F94D00"/>
</g>
<defs>
<clipPath id="clip0_537_95">
<rect width="56" height="56" fill="white"/>
</clipPath>
</defs>
</svg>
