<svg width="56" height="56" viewBox="0 0 56 56" fill="none" xmlns="http://www.w3.org/2000/svg">
<path d="M50.4532 35.2766C50.2037 35.1325 49.9462 35.0142 49.6843 34.9182L49.8388 21.023C52.5856 19.9353 53.7541 16.5491 52.2548 14C50.7726 11.3722 47.1294 10.7292 44.8366 12.6852L32.8797 5.60361C32.9108 5.38059 32.9281 5.15331 32.9281 4.92188C32.9281 2.20795 30.7201 0 28.0062 0C25.2923 0 23.0843 2.20795 23.0843 4.92188C23.0843 5.21008 23.1107 5.49216 23.1584 5.76691L11.0471 12.5811C10.8695 12.4427 10.6812 12.3141 10.4808 12.1984C6.71539 10.0137 2.12295 13.5376 3.26581 17.7347C3.66897 19.274 4.83206 20.5425 6.32798 21.0805L6.17354 34.9774C5.96497 35.062 5.75945 35.1607 5.55908 35.2764C3.24054 36.5523 2.38709 39.7362 3.75745 42C5.25654 44.6504 8.90825 45.2552 11.1756 43.3148L23.1325 50.3964C23.1014 50.6194 23.0841 50.8467 23.0841 51.078C23.0841 53.7919 25.2921 55.9999 28.006 55.9999C30.7199 55.9999 32.9279 53.7919 32.9279 51.078C32.9279 50.7898 32.9015 50.5077 32.8538 50.233L44.9651 43.4188C45.818 44.0955 46.9411 44.4686 47.9839 44.46C52.9701 44.4379 54.8044 37.8516 50.4532 35.2766ZM11.218 20.2018L16.0041 22.965C15.3515 24.5147 14.9905 26.2159 14.9905 28C14.9905 29.7841 15.3516 31.4853 16.0041 33.035L11.2176 35.7984C10.6982 35.3553 10.0968 35.0304 9.45644 34.8351L9.6089 21.1158C10.1923 20.917 10.7401 20.6096 11.218 20.2018ZM43.154 17.3599L38.3626 20.1262C36.2962 17.4148 33.1916 15.5352 29.6467 15.0874V9.56156C30.2902 9.3333 30.8723 8.97499 31.3616 8.51802L43.167 15.5098C43.0474 16.1143 43.0398 16.7421 43.154 17.3599ZM33.5441 26.3594C33.4199 23.8045 33.0036 21.2748 32.2722 19.2516C35.0361 20.6049 37.068 23.2298 37.6016 26.3594H33.5441ZM28.0061 37.7073C27.762 37.5371 27.1672 36.8331 26.6194 35.0364C26.1569 33.5191 25.859 31.645 25.7531 29.6406H30.2591C30.1532 31.6449 29.8553 33.5191 29.3928 35.0364C28.845 36.833 28.2502 37.5371 28.0061 37.7073ZM25.7531 26.3594C25.859 24.355 26.1569 22.4809 26.6194 20.9636C27.1672 19.1669 27.762 18.4629 28.0061 18.2928C28.2502 18.4629 28.845 19.167 29.3928 20.9636C29.8553 22.4809 30.1532 24.355 30.2591 26.3594H25.7531ZM22.4681 26.3594H18.4107C18.9442 23.2298 20.9762 20.6049 23.74 19.2516C23.0087 21.2748 22.5923 23.8045 22.4681 26.3594ZM18.4107 29.6406H22.4681C22.5923 32.1955 23.0087 34.7253 23.74 36.7484C20.9761 35.3951 18.9442 32.7702 18.4107 29.6406ZM33.5441 29.6406H37.6015C37.068 32.7702 35.036 35.3951 32.2721 36.7484C33.0036 34.7253 33.4199 32.1955 33.5441 29.6406ZM26.3655 15.0874C22.8206 15.5352 19.716 17.4148 17.6496 20.1262L12.8582 17.3599C12.9822 16.6885 12.9629 16.0053 12.812 15.3531L24.7696 8.62531C25.2333 9.03109 25.7733 9.35156 26.3655 9.56156V15.0874ZM12.8582 38.6401L17.6496 35.8738C19.716 38.5852 22.8206 40.4647 26.3655 40.9126V46.4385C25.722 46.6668 25.14 47.0251 24.6506 47.4821L12.8453 40.4903C12.9649 39.8857 12.9724 39.2579 12.8582 38.6401ZM29.6467 40.9126C33.1916 40.4648 36.2962 38.5852 38.3626 35.8738L43.154 38.6401C43.0299 39.3115 43.0493 39.9947 43.2003 40.6469L31.2425 47.3747C30.7788 46.9689 30.2388 46.6484 29.6466 46.4384V40.9126H29.6467ZM44.7946 35.7984L40.008 33.035C40.6606 31.4853 41.0216 29.7841 41.0216 28C41.0216 26.2159 40.6605 24.5147 40.008 22.965L44.7941 20.2019C45.3134 20.6451 45.9154 20.9683 46.5557 21.1636L46.4032 34.8845C45.82 35.0832 45.2726 35.3907 44.7946 35.7984ZM47.172 15.04C47.942 14.5917 48.9582 14.8502 49.4131 15.6406C49.8655 16.4241 49.596 17.4295 48.8126 17.8818C46.8825 18.8917 45.3327 16.206 47.172 15.04ZM28.0061 3.28125C28.9107 3.28125 29.6467 4.01723 29.6467 4.92188C29.5566 7.09844 26.4553 7.09778 26.3655 4.92188C26.3655 4.01723 27.1015 3.28125 28.0061 3.28125ZM6.59901 15.6406C7.05379 14.8502 8.07011 14.5918 8.84011 15.04C10.0982 15.7627 9.84668 17.6761 8.4445 18.0456C7.0515 18.4314 5.86773 16.8883 6.59901 15.6406ZM8.84022 40.96C6.91051 41.9703 5.3599 39.284 7.19959 38.1182C7.57923 37.8991 8.02133 37.841 8.4445 37.9543C9.84668 38.3239 10.0982 40.2374 8.84022 40.96ZM28.0061 52.7188C27.1015 52.7188 26.3655 51.9828 26.3655 51.0781C26.4556 48.9016 29.5569 48.9022 29.6467 51.0781C29.6467 51.9828 28.9107 52.7188 28.0061 52.7188ZM49.4132 40.3594C48.9609 41.1428 47.9559 41.4122 47.1721 40.96C45.3323 39.7935 46.8835 37.1083 48.8127 38.1183C49.5961 38.5705 49.8655 39.5759 49.4132 40.3594Z" fill="#F94D00"/>
</svg>
