<svg width="56" height="56" viewBox="0 0 56 56" fill="none" xmlns="http://www.w3.org/2000/svg">
<g clip-path="url(#clip0_537_74)">
<path d="M16.625 13.4583H19.9062V16.7395H16.625V13.4583Z" fill="#F94D00"/>
<path d="M16.625 6.89575H19.9062V10.177H16.625V6.89575Z" fill="#F94D00"/>
<path d="M16.625 0.333252H19.9062V3.6145H16.625V0.333252Z" fill="#F94D00"/>
<path d="M23.7344 0.333252H27.0156V3.6145H23.7344V0.333252Z" fill="#F94D00"/>
<path d="M31.1719 0.333252H34.4531V3.6145H31.1719V0.333252Z" fill="#F94D00"/>
<path d="M38.2812 0.333252H41.5625V3.6145H38.2812V0.333252Z" fill="#F94D00"/>
<path d="M38.2812 6.89575H41.5625V10.177H38.2812V6.89575Z" fill="#F94D00"/>
<path d="M56 36.427V13.4583H23.8438V20.0107H0V48.0107H12.5781V50.8215C12.5781 51.684 11.8765 52.3857 11.014 52.3857H10.0078V55.6669H26.5234V52.3857H25.5173C24.6548 52.3857 23.9531 51.684 23.9531 50.8215V48.0107H36.5312V43.7551H48.1797V40.4739H47.1735C46.3111 40.4739 45.6094 39.7722 45.6094 38.9097V36.427H56ZM27.125 16.7395H52.7188V33.1458H36.5312V20.0107H27.125V16.7395ZM20.9309 52.3857H15.6004C15.7683 51.8948 15.8594 51.3686 15.8594 50.8215V48.0107H20.6719V50.8215C20.6719 51.3686 20.763 51.8948 20.9309 52.3857ZM33.25 44.7294H3.28125V23.2919H33.25V44.7294ZM42.5871 40.4739H36.5312V36.427H42.3281V38.9097C42.3281 39.4568 42.4192 39.983 42.5871 40.4739Z" fill="#F94D00"/>
</g>
<defs>
<clipPath id="clip0_537_74">
<rect width="56" height="56" fill="white"/>
</clipPath>
</defs>
</svg>
