<svg width="56" height="56" viewBox="0 0 56 56" fill="none" xmlns="http://www.w3.org/2000/svg">
<g clip-path="url(#clip0_537_87)">
<path d="M52.7734 49.9462V23.8055H42.9297V49.9462H39.5391V27.8524H29.6953V49.9462H26.3047V31.8993H16.4609V49.9462H13.0703V35.5087H3.22656V49.9462H0V53.2274H56V49.9462H52.7734ZM6.50781 49.9462V38.7899H9.78906V49.9462H6.50781ZM19.7422 49.9462V35.1805H23.0234V49.9462H19.7422ZM32.9766 49.9462V31.1337H36.2578V49.9462H32.9766ZM46.2109 49.9462V27.0868H49.4922V49.9462H46.2109Z" fill="#F94D00"/>
<path d="M6.27045 28.8517L30.4059 19.1511L28.8433 22.8138L31.8614 24.1013L35.6219 15.2865L26.8069 11.526L25.5194 14.5441L29.1821 16.1066L5.04688 25.8071L6.27045 28.8517Z" fill="#F94D00"/>
<path d="M42.7957 18.1647L47.7969 16.7756L52.798 18.1647L53.0222 12.9791L55.8888 8.65199L51.0263 6.83637L47.7969 2.77319L44.5675 6.83637L39.7051 8.6521L42.5716 12.9792L42.7957 18.1647ZM46.569 9.59141L47.7969 8.0466L49.0247 9.59141L50.8733 10.2818L49.7834 11.9268L49.6981 13.8982L47.7969 13.37L45.8956 13.8982L45.8103 11.9268L44.7205 10.2818L46.569 9.59141Z" fill="#F94D00"/>
</g>
<defs>
<clipPath id="clip0_537_87">
<rect width="56" height="56" fill="white"/>
</clipPath>
</defs>
</svg>
