<svg width="56" height="56" viewBox="0 0 56 56" fill="none" xmlns="http://www.w3.org/2000/svg">
<g clip-path="url(#clip0_537_92)">
<path d="M56 27.2244H46.1562V27.227H43.0655L41.7857 26.4897L45.2378 20.5105L42.3294 18.8312C42.4248 18.1565 42.4729 17.4733 42.4729 16.7893C42.4729 16.1053 42.4249 15.4221 42.3294 14.7474L45.2378 13.0681L39.8414 3.72129L36.9308 5.40173C35.855 4.55867 34.6597 3.86742 33.3965 3.35784V0.000244141H22.6035V3.35795C21.34 3.86753 20.1449 4.55867 19.0692 5.40184L16.1585 3.7214L10.7621 13.0683L13.6706 14.7475C13.5752 15.4221 13.5271 16.1052 13.5271 16.7894C13.5271 17.4737 13.5751 18.1567 13.6706 18.8313L10.7621 20.5105L13.052 24.4768H9.84375V24.4743H0V51.93H9.84375V48.9516L15.4465 54.5543C16.3783 55.486 17.6169 55.999 18.9345 55.999C20.2521 55.999 21.4908 55.486 22.4224 54.5543C22.8267 54.1502 23.1517 53.6881 23.3907 53.1869L24.7591 54.5553C25.6908 55.4869 26.9294 56 28.2471 56C29.5646 56 30.8033 55.4869 31.735 54.5553C32.1445 54.1458 32.466 53.6814 32.701 53.1858L33.7786 54.2634C34.7103 55.195 35.9489 55.7081 37.2666 55.7081C38.5841 55.7081 39.8228 55.195 40.7545 54.2634C41.188 53.8299 41.5228 53.3349 41.7609 52.8065C43.7925 54.1919 46.6355 53.8393 48.2529 51.93H56V27.2244ZM46.1562 30.5082V43.4087L32.1438 29.3962H26.4182L25.8693 29.8279C24.5035 30.9014 22.7946 31.4496 21.0603 31.373C19.9239 31.3225 18.8232 31.0058 17.8435 30.4588L24.1317 24.602H31.9361L42.1878 30.5082H46.1562ZM23.4686 16.7893C23.4686 14.2907 25.5013 12.2579 28 12.2579C30.4987 12.2579 32.5314 14.2906 32.5314 16.7893C32.5314 19.288 30.4987 21.3207 28 21.3207C25.5013 21.3207 23.4686 19.288 23.4686 16.7893ZM15.2443 21.7115L17.3637 20.4878L17.0923 19.3059C16.9038 18.4859 16.8083 17.6393 16.8083 16.7893C16.8083 15.9394 16.9038 15.0927 17.0923 14.2727L17.3637 13.0908L15.2443 11.8673L17.3595 8.2037L19.483 9.42968L20.3709 8.60204C21.6098 7.44704 23.115 6.57663 24.7238 6.08499L25.8848 5.73007V3.28149H30.1152V5.73007L31.2762 6.08499C32.885 6.57674 34.3902 7.44715 35.629 8.60204L36.5168 9.42979L38.6404 8.2037L40.7556 11.8673L38.6364 13.0909L38.9077 14.2726C39.0962 15.0931 39.1917 15.9399 39.1917 16.7894C39.1917 17.6389 39.0962 18.4857 38.9077 19.3062L38.6364 20.4879L40.7556 21.7115L38.9426 24.8518L33.8742 21.9317C35.0796 20.5565 35.8127 18.7574 35.8127 16.7894C35.8127 12.4816 32.308 8.97676 28 8.97676C23.692 8.97676 20.1873 12.4815 20.1873 16.7894C20.1873 18.7718 20.9309 20.583 22.152 21.962L19.4519 24.4768H16.8407L15.2443 21.7115ZM6.5625 48.6487H3.28125V27.7556H6.5625V48.6487ZM43.3556 49.8887L30.5852 37.1183L28.265 39.4385L38.4342 49.6076C39.4688 50.6378 38.7262 52.4329 37.2664 52.4268C36.8253 52.4268 36.4105 52.255 36.0986 51.9432L25.9294 41.7741L23.6093 44.0942L29.4145 49.8995C30.4493 50.9296 29.7066 52.7249 28.2468 52.7188C27.8056 52.7188 27.3909 52.5469 27.079 52.2351L21.3388 46.495L19.0187 48.8152L20.1021 49.8987C20.7429 50.5134 20.7429 51.6193 20.1021 52.2341C19.4876 52.8747 18.3812 52.8747 17.7667 52.2341L9.84375 44.3111V27.7581H15.929L12.8825 30.5956L14.1586 31.7965C15.9953 33.5253 18.3946 34.5391 20.9146 34.6511C23.2846 34.7562 25.6189 34.0581 27.5384 32.6774H30.7848L45.6758 47.5685C46.3122 48.1793 46.3122 49.2779 45.6758 49.8887C45.0359 50.5283 43.9951 50.5283 43.3556 49.8887ZM52.7188 48.6487H49.4375V30.5057H52.7188V48.6487Z" fill="#F94D00"/>
</g>
<defs>
<clipPath id="clip0_537_92">
<rect width="56" height="56" fill="white"/>
</clipPath>
</defs>
</svg>
