<svg width="52" height="52" viewBox="0 0 52 52" fill="none" xmlns="http://www.w3.org/2000/svg">
<path d="M37.3721 5.61166C34.3281 2.58918 30.2981 0.929077 26.0113 0.929077C25.9725 0.929077 25.9328 0.929175 25.894 0.929469C21.7089 0.958947 17.7463 2.59868 14.7362 5.54663C11.7255 8.49517 10.0046 12.4228 9.89093 16.6057C9.77233 20.9647 11.369 25.0931 14.3867 28.2307C16.7631 30.7014 18.0719 33.9876 18.0719 37.4842V44.2106C18.0719 45.5926 19.0313 46.754 20.3188 47.0655V47.9624C20.3188 49.677 21.7137 51.0718 23.4282 51.0718H28.5698C30.2844 51.0718 31.6793 49.677 31.6793 47.9624V47.0707C32.978 46.7672 33.9485 45.6005 33.9485 44.2106V37.4844C33.9485 34.0336 35.2932 30.7093 37.735 28.1242C40.5728 25.1199 42.1356 21.1886 42.1356 17.0544C42.1356 12.7257 40.4439 8.66185 37.3721 5.61166ZM29.7207 47.9625C29.7207 48.597 29.2045 49.1132 28.5699 49.1132H23.4283C22.7938 49.1132 22.2776 48.597 22.2776 47.9625V47.1484H29.7207V47.9625ZM31.9899 44.2106C31.9899 44.7504 31.5508 45.1897 31.0109 45.1897H30.7H21.2982H21.0097C20.4698 45.1897 20.0307 44.7504 20.0307 44.2106V38.6405H31.9899V44.2106ZM24.4718 36.6818V24.2943H27.5229V36.6817H24.4718V36.6818ZM36.3112 26.7792C33.7138 29.5292 32.204 33.019 32.0111 36.6817H29.4816V24.2943H30.3619C31.9273 24.2943 33.2009 23.0207 33.2009 21.4552V21.3034C33.2009 19.7379 31.9273 18.4644 30.3619 18.4644C28.7965 18.4644 27.5229 19.7379 27.5229 21.3034V22.3356H24.4718V21.3034C24.4718 19.7379 23.1983 18.4644 21.6329 18.4644H21.4399C19.8746 18.4644 18.601 19.7379 18.601 21.3034V21.4552C18.601 23.0206 19.8746 24.2943 21.4399 24.2943H22.5131V36.6817H20.0105C19.8235 32.9775 18.3446 29.5199 15.7985 26.8728C13.1474 24.1165 11.7446 20.4891 11.8489 16.659C12.054 9.11891 18.3608 2.94135 25.9079 2.88808C29.7169 2.86134 33.2935 4.32214 35.9921 7.00155C38.6909 9.68126 40.177 13.2515 40.177 17.0544C40.177 20.6864 38.8041 24.14 36.3112 26.7792ZM29.4816 22.3356V21.3034C29.4816 20.818 29.8765 20.4231 30.3619 20.4231C30.8473 20.4231 31.2422 20.8181 31.2422 21.3034V21.4552C31.2422 21.9407 30.8473 22.3356 30.3619 22.3356H29.4816ZM22.513 21.3034V22.3356H21.4398C20.9545 22.3356 20.5596 21.9407 20.5596 21.4552V21.3034C20.5596 20.818 20.9545 20.4231 21.4398 20.4231H21.6328C22.1181 20.4231 22.513 20.8182 22.513 21.3034Z" fill="#F94D00"/>
<path d="M46.4126 5.80697C46.03 5.42453 45.4101 5.42453 45.0275 5.80697L43.2028 7.6316C42.8204 8.01404 42.8204 8.63417 43.2028 9.0167C43.3941 9.20797 43.6447 9.30355 43.8954 9.30355C44.1462 9.30355 44.3967 9.20797 44.5879 9.0167L46.4126 7.19207C46.795 6.80963 46.795 6.1895 46.4126 5.80697Z" fill="#F94D00"/>
<path d="M46.4125 26.9168L44.5879 25.0921C44.2055 24.7097 43.5856 24.7097 43.2028 25.0921C42.8204 25.4746 42.8204 26.0947 43.2028 26.4771L45.0275 28.3018C45.2187 28.493 45.4694 28.5886 45.72 28.5886C45.9706 28.5886 46.2212 28.4929 46.4125 28.3018C46.7949 27.9193 46.7949 27.2992 46.4125 26.9168Z" fill="#F94D00"/>
<path d="M50.0911 16.075H47.5106C46.9698 16.075 46.5312 16.5134 46.5312 17.0543C46.5312 17.5952 46.9698 18.0337 47.5106 18.0337H50.0911C50.6319 18.0337 51.0705 17.5952 51.0705 17.0543C51.0705 16.5134 50.6319 16.075 50.0911 16.075Z" fill="#F94D00"/>
<path d="M8.79627 7.63172L6.97173 5.80709C6.5892 5.42465 5.96927 5.42465 5.58663 5.80709C5.2042 6.18953 5.2042 6.80965 5.58663 7.19219L7.41126 9.01682C7.60253 9.20809 7.85315 9.30368 8.10377 9.30368C8.35438 9.30368 8.605 9.20809 8.79627 9.01682C9.1787 8.63429 9.1787 8.01426 8.79627 7.63172Z" fill="#F94D00"/>
<path d="M8.79627 25.0921C8.41383 24.7095 7.7938 24.7095 7.41126 25.0921L5.58663 26.9168C5.2042 27.2992 5.2042 27.9194 5.58663 28.3018C5.7779 28.4931 6.02852 28.5887 6.27913 28.5887C6.52975 28.5887 6.78037 28.493 6.97163 28.3018L8.79627 26.4772C9.1787 26.0946 9.1787 25.4746 8.79627 25.0921Z" fill="#F94D00"/>
<path d="M4.48856 16.075H1.90806C1.36727 16.075 0.928711 16.5134 0.928711 17.0543C0.928711 17.5952 1.36727 18.0337 1.90806 18.0337H4.48856C5.02936 18.0337 5.46791 17.5952 5.46791 17.0543C5.46791 16.5134 5.02936 16.075 4.48856 16.075Z" fill="#F94D00"/>
</svg>
