<svg width="52" height="52" viewBox="0 0 52 52" fill="none" xmlns="http://www.w3.org/2000/svg">
<path d="M51.0716 40.7732C51.072 41.403 50.9769 42.0293 50.7895 42.6306L48.3931 50.3359C48.327 50.5491 48.1944 50.7355 48.0147 50.8678C47.835 51.0002 47.6176 51.0715 47.3944 51.0713C47.2897 51.0712 47.1855 51.0557 47.0852 51.0253C46.9542 50.9846 46.8325 50.9185 46.727 50.8307C46.6216 50.7429 46.5344 50.6352 46.4706 50.5138C46.4068 50.3923 46.3675 50.2595 46.355 50.1228C46.3425 49.9862 46.3571 49.8484 46.3978 49.7174L48.7943 42.0101C48.9694 41.4478 49.0231 40.8547 48.9518 40.2701C48.8805 39.6854 48.6859 39.1226 48.3807 38.6189C48.0755 38.1152 47.6668 37.6821 47.1816 37.3483C46.6964 37.0144 46.1458 36.7874 45.5663 36.6824L37.1611 35.1572C36.9202 35.1136 36.7023 34.9869 36.5453 34.799C36.3884 34.6111 36.3024 34.3741 36.3024 34.1293V21.9446C36.2867 21.4871 36.0939 21.0537 35.7647 20.7357C35.4355 20.4176 34.9957 20.2399 34.538 20.2399C34.0803 20.2399 33.6405 20.4176 33.3113 20.7357C32.9821 21.0537 32.7894 21.4871 32.7736 21.9446V43.4893C32.7736 43.6957 32.7124 43.8975 32.5977 44.0692C32.483 44.2409 32.3201 44.3748 32.1294 44.4539C31.9387 44.5331 31.7289 44.5539 31.5263 44.5139C31.3238 44.4738 31.1377 44.3746 30.9915 44.2289L27.097 40.3324C26.9226 40.1478 26.713 40 26.4805 39.8979C26.248 39.7957 25.9974 39.7412 25.7435 39.7376C25.4896 39.734 25.2375 39.7813 25.0022 39.8768C24.7669 39.9723 24.5531 40.1141 24.3736 40.2936C24.194 40.4732 24.0523 40.687 23.9567 40.9223C23.8612 41.1576 23.8139 41.4096 23.8175 41.6636C23.8211 41.9175 23.8756 42.1681 23.9778 42.4006C24.0799 42.6331 24.2277 42.8427 24.4123 43.0171L30.6802 49.285C30.8763 49.4808 30.9866 49.7466 30.9868 50.0238C30.987 50.301 30.8771 50.567 30.6812 50.7631C30.4853 50.9593 30.2195 51.0696 29.9423 51.0698C29.6651 51.07 29.3992 50.9601 29.203 50.7642L22.9352 44.4963C22.5648 44.1259 22.271 43.6862 22.0705 43.2022C21.87 42.7183 21.7669 42.1996 21.7669 41.6758C21.7669 41.152 21.87 40.6333 22.0705 40.1493C22.271 39.6654 22.5648 39.2256 22.9352 38.8553C23.3056 38.4849 23.7453 38.191 24.2292 37.9906C24.7132 37.7901 25.2319 37.6869 25.7557 37.6869C26.2795 37.6869 26.7982 37.7901 27.2822 37.9906C27.7661 38.191 28.2058 38.4849 28.5762 38.8553L30.6864 40.9654V21.9529C30.7099 20.9464 31.1262 19.989 31.8463 19.2854C32.5665 18.5818 33.5333 18.1879 34.5401 18.1879C35.5469 18.1879 36.5137 18.5818 37.2339 19.2854C37.9541 19.989 38.3704 20.9464 38.3938 21.9529V33.2664L45.9424 34.6349C47.3804 34.8964 48.6811 35.6539 49.6183 36.7754C50.5555 37.897 51.0697 39.3116 51.0716 40.7732ZM19.3332 38.5356C19.1262 38.535 18.9277 38.4525 18.7813 38.3061C18.6349 38.1597 18.5524 37.9613 18.5519 37.7542V34.8292C18.5596 34.2366 18.3849 33.656 18.0516 33.1661C17.7182 32.6761 17.2422 32.3005 16.6882 32.0901C16.3372 31.9627 15.9946 31.8185 15.6561 31.6598C15.1217 31.418 14.5257 31.3467 13.9493 31.4554C13.3729 31.5642 12.844 31.8478 12.4344 32.2677L10.3451 34.357C10.198 34.5008 10.0004 34.5814 9.79461 34.5814C9.58884 34.5814 9.39125 34.5008 9.24408 34.357L7.19659 32.3116C7.12406 32.2392 7.06653 32.1533 7.02727 32.0586C6.98802 31.964 6.96781 31.8625 6.96781 31.76C6.96781 31.6576 6.98802 31.5561 7.02727 31.4615C7.06653 31.3668 7.12406 31.2809 7.19659 31.2085L9.28587 29.1192C9.70605 28.7089 9.9901 28.1795 10.0996 27.6026C10.2091 27.0256 10.1387 26.429 9.89803 25.8933C9.73815 25.5581 9.5952 25.215 9.46973 24.8654C9.25875 24.3114 8.8827 23.8355 8.39244 23.5022C7.90218 23.1689 7.32137 22.9942 6.72859 23.0018H3.80359C3.7007 23.002 3.59876 22.982 3.5036 22.9429C3.40844 22.9038 3.32192 22.8463 3.24897 22.7738C3.17602 22.7012 3.11808 22.615 3.07845 22.52C3.03883 22.4251 3.01829 22.3233 3.01802 22.2204V19.333C3.01857 19.1259 3.10107 18.9275 3.24749 18.7811C3.39391 18.6346 3.59234 18.5521 3.79941 18.5516H6.72441C7.31697 18.5593 7.89759 18.3847 8.38755 18.0513C8.87751 17.7179 9.25312 17.242 9.46346 16.6879C9.59091 16.3369 9.73507 15.9943 9.89385 15.6558C10.135 15.1213 10.206 14.5255 10.0973 13.9492C9.98852 13.373 9.70526 12.8441 9.28587 12.4342L7.19659 10.3449C7.12406 10.2725 7.06653 10.1865 7.02727 10.0919C6.98802 9.99722 6.96781 9.89577 6.96781 9.7933C6.96781 9.69084 6.98802 9.58938 7.02727 9.49473C7.06653 9.40009 7.12406 9.31411 7.19659 9.24173L9.242 7.19632C9.31424 7.12355 9.40017 7.06579 9.49483 7.02638C9.5895 6.98697 9.69102 6.96667 9.79357 6.96667C9.89611 6.96667 9.99764 6.98697 10.0923 7.02638C10.187 7.06579 10.2729 7.12355 10.3451 7.19632L12.4344 9.28561C12.8447 9.7057 13.3743 9.98953 13.9513 10.0987C14.5283 10.2078 15.1249 10.1369 15.6603 9.89568C15.9946 9.73898 16.3372 9.59482 16.6882 9.47782C17.2422 9.26684 17.7181 8.89079 18.0514 8.40053C18.3847 7.91027 18.5594 7.32947 18.5519 6.73668V3.81168C18.5505 3.70809 18.5696 3.60526 18.6083 3.50913C18.6469 3.413 18.7042 3.32549 18.7769 3.25165C18.8495 3.17782 18.9361 3.11913 19.0316 3.07898C19.1271 3.03883 19.2296 3.01802 19.3332 3.01775H22.2206C22.4277 3.0183 22.6261 3.10081 22.7726 3.24723C22.919 3.39365 23.0015 3.59208 23.002 3.79914V6.72414C22.9943 7.31671 23.1689 7.89732 23.5023 8.38728C23.8357 8.87724 24.3116 9.25285 24.8657 9.46319C25.2167 9.59064 25.5593 9.7348 25.8978 9.89359C26.4323 10.135 27.0281 10.2062 27.6045 10.0975C28.1808 9.98869 28.7097 9.70526 29.1195 9.28561L31.2087 7.19632C31.281 7.12355 31.3669 7.06579 31.4616 7.02638C31.5562 6.98697 31.6578 6.96667 31.7603 6.96667C31.8629 6.96667 31.9644 6.98697 32.059 7.02638C32.1537 7.06579 32.2396 7.12355 32.3119 7.19632L34.3573 9.24173C34.4298 9.31411 34.4873 9.40009 34.5266 9.49473C34.5659 9.58938 34.5861 9.69084 34.5861 9.7933C34.5861 9.89577 34.5659 9.99722 34.5266 10.0919C34.4873 10.1865 34.4298 10.2725 34.3573 10.3449L32.268 12.4342C31.8479 12.8436 31.5639 13.3723 31.4544 13.9486C31.3449 14.5248 31.4152 15.1209 31.6558 15.6558C31.7056 15.7924 31.7833 15.917 31.884 16.0218C31.9847 16.1266 32.1061 16.2092 32.2406 16.2644C32.375 16.3196 32.5195 16.3461 32.6647 16.3423C32.81 16.3385 32.9529 16.3044 33.0842 16.2422C33.2156 16.18 33.3325 16.0911 33.4275 15.9812C33.5226 15.8713 33.5936 15.7427 33.6362 15.6038C33.6787 15.4648 33.6918 15.3185 33.6746 15.1743C33.6574 15.03 33.6102 14.8908 33.5362 14.7658C33.4815 14.6188 33.4722 14.4588 33.5094 14.3064C33.5467 14.1541 33.6288 14.0164 33.7451 13.9113L35.8344 11.822C36.3712 11.2828 36.6725 10.553 36.6725 9.79226C36.6725 9.03148 36.3712 8.30167 35.8344 7.76252L33.7911 5.7192C33.2447 5.19626 32.5176 4.90436 31.7614 4.90436C31.0051 4.90436 30.278 5.19626 29.7316 5.7192L27.6423 7.80848C27.538 7.92472 27.4011 8.00682 27.2494 8.04409C27.0977 8.08136 26.9383 8.07206 26.792 8.01741C26.395 7.82937 25.9918 7.66223 25.576 7.50971C25.4266 7.44487 25.3004 7.33632 25.2138 7.19834C25.1273 7.06035 25.0846 6.89941 25.0913 6.73668V3.81168C25.0927 3.43372 25.0195 3.0592 24.8758 2.70959C24.7322 2.35998 24.521 2.04215 24.2543 1.77431C23.9877 1.50647 23.6708 1.29388 23.3218 1.14874C22.9728 1.00359 22.5986 0.928739 22.2206 0.928467L19.3332 0.928467C18.5721 0.92902 17.8422 1.23164 17.304 1.76988C16.7657 2.30812 16.4631 3.03796 16.4626 3.79914V6.72414C16.4691 6.88711 16.4264 7.04826 16.3399 7.18655C16.2534 7.32484 16.1272 7.43382 15.9779 7.49927C15.56 7.6497 15.1589 7.81684 14.7661 8.00487C14.6191 8.05987 14.459 8.06935 14.3066 8.03208C14.1542 7.99482 14.0165 7.91254 13.9115 7.79595L11.8223 5.70666C11.2759 5.18372 10.5488 4.89183 9.79252 4.89183C9.03624 4.89183 8.30913 5.18372 7.76278 5.70666L5.71946 7.74998C5.18272 8.28914 4.88138 9.01894 4.88138 9.77972C4.88138 10.5405 5.18272 11.2703 5.71946 11.8095L7.80875 13.8987C7.92474 14.0032 8.00668 14.1402 8.04393 14.2918C8.08118 14.4434 8.07204 14.6027 8.01767 14.7491C7.82964 15.146 7.6625 15.5493 7.50998 15.965C7.44514 16.1145 7.33658 16.2407 7.1986 16.3272C7.06062 16.4138 6.89967 16.4565 6.73694 16.4498H3.81194C3.43293 16.4484 3.05738 16.522 2.70695 16.6664C2.35652 16.8108 2.03813 17.0232 1.77012 17.2912C1.50212 17.5592 1.2898 17.8776 1.14539 18.228C1.00098 18.5784 0.927349 18.954 0.92873 19.333V22.2204C0.929283 22.9815 1.23191 23.7114 1.77014 24.2496C2.30838 24.7879 3.03823 25.0905 3.79941 25.091H6.72441C6.88737 25.0845 7.04853 25.1272 7.18682 25.2137C7.3251 25.3002 7.43409 25.4264 7.49953 25.5758C7.64996 25.9936 7.8171 26.3948 8.00514 26.7875C8.05984 26.9345 8.06917 27.0945 8.03192 27.2469C7.99467 27.3992 7.91256 27.5369 7.79621 27.6421L5.70692 29.7313C5.17018 30.2705 4.86884 31.0003 4.86884 31.7611C4.86884 32.5219 5.17018 33.2517 5.70692 33.7908L7.75025 35.8321C8.2966 36.355 9.0237 36.6469 9.77999 36.6469C10.5363 36.6469 11.2634 36.355 11.8097 35.8321L13.899 33.7428C14.0033 33.6265 14.1403 33.5444 14.292 33.5072C14.4436 33.4699 14.603 33.4792 14.7494 33.5338C15.1463 33.7219 15.5495 33.889 15.9653 34.0415C16.1147 34.1064 16.241 34.2149 16.3275 34.3529C16.414 34.4909 16.4567 34.6518 16.45 34.8146V37.7396C16.4484 38.1188 16.5218 38.4945 16.6661 38.8452C16.8104 39.1959 17.0226 39.5145 17.2907 39.7827C17.5587 40.051 17.8772 40.2635 18.2278 40.408C18.5783 40.5526 18.9541 40.6263 19.3332 40.6249C19.6103 40.6249 19.876 40.5148 20.0719 40.3189C20.2678 40.123 20.3779 39.8573 20.3779 39.5802C20.3779 39.3032 20.2678 39.0375 20.0719 38.8416C19.876 38.6456 19.6103 38.5356 19.3332 38.5356ZM20.7769 26.727C19.6001 26.727 18.4497 26.378 17.4711 25.7242C16.4926 25.0703 15.73 24.141 15.2796 23.0537C14.8292 21.9665 14.7114 20.7701 14.941 19.6158C15.1706 18.4616 15.7373 17.4013 16.5695 16.5692C17.4016 15.737 18.4619 15.1703 19.6161 14.9407C20.7703 14.7111 21.9667 14.829 23.054 15.2793C24.1413 15.7297 25.0706 16.4924 25.7244 17.4709C26.3782 18.4494 26.7272 19.5998 26.7272 20.7767C26.725 22.3541 26.0974 23.8663 24.982 24.9817C23.8666 26.0971 22.3544 26.7247 20.7769 26.727ZM24.6379 20.7767C24.6379 20.013 24.4115 19.2666 23.9872 18.6316C23.563 17.9967 22.96 17.5018 22.2545 17.2096C21.549 16.9173 20.7727 16.8409 20.0237 16.9899C19.2747 17.1388 18.5868 17.5066 18.0468 18.0465C17.5068 18.5865 17.1391 19.2745 16.9901 20.0234C16.8411 20.7724 16.9176 21.5487 17.2098 22.2542C17.5021 22.9597 17.9969 23.5627 18.6319 23.987C19.2668 24.4112 20.0133 24.6377 20.7769 24.6377C21.8006 24.6366 22.782 24.2294 23.5059 23.5056C24.2297 22.7817 24.6368 21.8003 24.6379 20.7767Z" fill="#F94D00"/>
</svg>
