<svg width="52" height="52" viewBox="0 0 52 52" fill="none" xmlns="http://www.w3.org/2000/svg">
<path d="M25.0235 39.6405C23.3494 39.5225 21.7334 39.1043 20.22 38.3971C19.9465 38.2695 19.6331 38.2547 19.3482 38.3584C19.0645 38.4621 18.8331 38.6741 18.7049 38.9482L17.2747 42.0148C14.2 40.3362 11.6633 37.7994 9.98519 34.7248L13.0513 33.2951C13.3254 33.1675 13.5379 32.9361 13.6411 32.6518C13.7442 32.3675 13.73 32.0535 13.6023 31.78C12.8958 30.2666 12.477 28.6506 12.359 26.9754C12.2747 25.7896 11.2781 24.8603 10.09 24.8603H2.06832C1.43926 24.8603 0.928711 25.3708 0.928711 25.9999C0.928711 39.8245 12.1755 51.0713 26.0001 51.0713C26.6292 51.0713 27.1397 50.5608 27.1397 49.9317V41.91C27.1397 40.722 26.2104 39.7254 25.0235 39.6405ZM24.8605 48.7636C13.1972 48.187 3.81307 38.8023 3.23642 27.1389L10.0861 27.1367C10.1966 28.7087 10.5345 30.2364 11.0923 31.694L7.95669 33.1561C7.68261 33.2837 7.47007 33.5151 7.36694 33.7994C7.2638 34.0837 7.27748 34.3971 7.40512 34.6712C9.44274 39.0325 12.9676 42.5573 17.3288 44.5949C17.6018 44.7226 17.9152 44.7368 18.2006 44.6331C18.485 44.5294 18.7163 44.3174 18.844 44.0433L20.3061 40.9077C21.7636 41.4655 23.2907 41.8023 24.8605 41.9094V48.7636ZM23.7209 23.7207V22.5811C23.7209 21.9526 23.2098 21.4415 22.5813 21.4415H19.1625C18.5334 21.4415 18.0229 20.9309 18.0229 20.3018C18.0229 19.6728 18.5334 19.1622 19.1625 19.1622H22.5813C24.4668 19.1622 26.0001 20.6956 26.0001 22.5811V23.7207C26.0001 25.6062 24.4668 27.1395 22.5813 27.1395H21.4417C20.8132 27.1395 20.3021 27.6506 20.3021 28.2791V30.5583H24.8605C25.4896 30.5583 26.0001 31.0689 26.0001 31.6979C26.0001 32.327 25.4896 32.8376 24.8605 32.8376H19.1625C18.5334 32.8376 18.0229 32.327 18.0229 31.6979V28.2791C18.0229 26.3936 19.5562 24.8603 21.4417 24.8603H22.5813C23.2098 24.8603 23.7209 24.3492 23.7209 23.7207ZM33.9774 27.1395H29.419C28.7899 27.1395 28.2794 26.629 28.2794 25.9999V20.3018C28.2794 19.6728 28.7899 19.1622 29.419 19.1622C30.048 19.1622 30.5586 19.6728 30.5586 20.3018V24.8603H33.9774V20.3018C33.9774 19.6728 34.488 19.1622 35.117 19.1622C35.7461 19.1622 36.2566 19.6728 36.2566 20.3018V31.6979C36.2566 32.327 35.7461 32.8376 35.117 32.8376C34.488 32.8376 33.9774 32.327 33.9774 31.6979V27.1395ZM51.0716 25.9999C51.0716 37.3379 43.4305 47.2992 32.4902 50.2235C32.3916 50.2497 32.2925 50.2622 32.1951 50.2622C31.6914 50.2622 31.231 49.9254 31.0942 49.4166C30.9318 48.8086 31.2931 48.1841 31.901 48.0212C35.4811 47.0645 38.6698 45.2753 41.2886 42.9003L38.8937 40.5054C38.4487 40.0604 38.4487 39.339 38.8937 38.894C39.3387 38.449 40.0601 38.449 40.5051 38.894L42.9017 41.2906C46.3513 37.4701 48.4932 32.5042 48.761 27.1401H45.3735C44.7445 27.1401 44.2339 26.6295 44.2339 26.0005C44.2339 25.3714 44.7445 24.8609 45.3735 24.8609H48.7633C48.4949 19.434 46.3188 14.5007 42.8937 10.7183L40.5045 13.1075C40.2817 13.3303 39.9906 13.4414 39.6988 13.4414C39.4071 13.4414 39.1159 13.3303 38.8931 13.1075C38.4481 12.6625 38.4481 11.9411 38.8931 11.4961L41.2823 9.10688C37.4999 5.68121 32.5666 3.50513 27.1397 3.23675V6.62652C27.1397 7.25558 26.6292 7.76613 26.0001 7.76613C25.3711 7.76613 24.8605 7.25558 24.8605 6.62652V3.23903C19.497 3.50684 14.5305 5.64873 10.71 9.09833L13.1066 11.4949C13.5516 11.94 13.5516 12.6613 13.1066 13.1063C12.8838 13.3291 12.5926 13.4402 12.3009 13.4402C12.0091 13.4402 11.718 13.3291 11.4952 13.1063L9.10029 10.7115C6.72534 13.3303 4.93615 16.5183 3.97945 20.0984C3.81648 20.7064 3.19141 21.0677 2.584 20.9053C1.97601 20.7429 1.61476 20.1184 1.77715 19.5098C4.70082 8.56955 14.6622 0.928467 26.0001 0.928467C39.8248 0.928467 51.0716 12.1753 51.0716 25.9999Z" fill="#F94D00"/>
</svg>
