<?xml version="1.0" encoding="UTF-8"?>
<svg id="Layer_1" xmlns="http://www.w3.org/2000/svg" version="1.1" viewBox="0 0 170 40">
  <!-- Generator: Adobe Illustrator 30.1.0, SVG Export Plug-In . SVG Version: 2.1.1 Build 136)  -->
  <path d="M54.41,8.03v24.76h-5.23V8.03h5.23Z" fill="#02060a"/>
  <path d="M63.77,22.06v10.74h-5.15V14.22h4.91v3.28h.22c.41-1.08,1.1-1.93,2.07-2.56.97-.64,2.14-.96,3.52-.96,1.29,0,2.41.28,3.37.85.96.56,1.7,1.37,2.24,2.42.53,1.04.8,2.28.8,3.72v11.82h-5.15v-10.9c0-1.14-.28-2.02-.87-2.66-.59-.64-1.4-.97-2.43-.97-.69,0-1.31.15-1.84.45-.52.3-.93.73-1.23,1.31-.29.56-.44,1.25-.45,2.04Z" fill="#02060a"/>
  <path d="M89.78,14.22v3.87h-11.46v-3.87h11.46ZM80.94,32.79V12.88c0-1.35.26-2.46.79-3.35.53-.89,1.26-1.55,2.18-1.99.92-.44,1.96-.66,3.13-.66.79,0,1.51.06,2.16.18.66.12,1.15.23,1.47.33l-.92,3.87c-.2-.06-.45-.12-.75-.18-.29-.06-.59-.08-.89-.08-.76,0-1.29.18-1.58.53-.3.35-.45.83-.45,1.46v19.81h-5.14Z" fill="#02060a"/>
  <path d="M92.93,32.79V14.22h5.15v18.57h-5.15ZM95.52,11.83c-.77,0-1.42-.25-1.97-.76-.54-.52-.81-1.13-.81-1.85s.27-1.32.81-1.83c.55-.52,1.21-.77,1.97-.77s1.42.26,1.96.77c.55.51.82,1.12.82,1.83s-.27,1.33-.82,1.85c-.54.51-1.19.76-1.96.76Z" fill="#02060a"/>
  <path d="M111.25,14.22v2.9h-10.14v-2.9h10.14ZM103.82,9.77h3.62v17.57c0,.7.1,1.23.31,1.58.21.35.48.58.81.71.34.12.71.18,1.1.18.29,0,.54-.02.76-.06.22-.04.39-.07.51-.1l.65,2.99c-.21.08-.51.16-.89.24-.39.09-.87.14-1.45.15-.95.02-1.84-.15-2.66-.51-.82-.35-1.49-.9-2-1.64-.51-.74-.76-1.67-.76-2.79V9.77Z" fill="#02060a"/>
  <path d="M123.05,33.17c-1.83,0-3.41-.39-4.73-1.17-1.31-.79-2.33-1.9-3.05-3.32-.71-1.43-1.06-3.12-1.06-5.04s.36-3.58,1.06-5.03c.72-1.45,1.72-2.58,3-3.4,1.29-.81,2.8-1.22,4.52-1.22,1.05,0,2.06.17,3.05.52.98.35,1.87.89,2.65,1.63.78.74,1.4,1.7,1.85,2.89.45,1.18.68,2.61.68,4.29v1.28h-14.76v-2.71h11.22c0-.95-.19-1.79-.58-2.53-.39-.74-.93-1.33-1.63-1.75-.69-.43-1.51-.64-2.44-.64-1.02,0-1.9.25-2.66.75-.75.49-1.33,1.14-1.74,1.93-.4.79-.6,1.65-.6,2.58v2.12c0,1.24.22,2.3.65,3.17.44.87,1.06,1.54,1.85,1.99.79.45,1.71.68,2.77.68.69,0,1.31-.1,1.87-.29.56-.2,1.05-.5,1.46-.89.41-.39.73-.88.94-1.46l3.42.62c-.27,1.01-.77,1.89-1.48,2.65-.7.75-1.58,1.33-2.65,1.75-1.06.41-2.26.62-3.61.62Z" fill="#02060a"/>
  <path d="M142.85,33.17c-1.8,0-3.35-.41-4.64-1.22-1.29-.82-2.28-1.95-2.97-3.4-.69-1.44-1.04-3.09-1.04-4.96s.36-3.55,1.06-4.99c.71-1.45,1.71-2.58,3-3.4,1.29-.81,2.81-1.22,4.56-1.22,1.41,0,2.67.26,3.77.79,1.1.52,1.99,1.24,2.67,2.18.68.93,1.09,2.03,1.22,3.28h-3.52c-.19-.87-.64-1.62-1.33-2.25-.68-.63-1.6-.94-2.76-.94-1.01,0-1.89.27-2.65.8-.75.52-1.33,1.27-1.75,2.25-.42.97-.63,2.11-.63,3.43s.21,2.52.62,3.51c.41.98.99,1.74,1.74,2.28.76.54,1.65.81,2.67.81.68,0,1.31-.12,1.86-.37.56-.26,1.04-.62,1.41-1.1.39-.48.66-1.05.81-1.72h3.52c-.13,1.2-.52,2.27-1.17,3.22-.65.94-1.53,1.68-2.62,2.22-1.09.54-2.37.81-3.83.81Z" fill="#02060a"/>
  <path d="M157.96,21.77v11.03h-3.61V8.03h3.57v9.21h.23c.44-1,1.1-1.79,1.99-2.38.9-.59,2.06-.88,3.51-.88,1.27,0,2.39.26,3.34.79.96.52,1.7,1.31,2.22,2.35.53,1.03.8,2.32.8,3.87v11.81h-3.61v-11.38c0-1.36-.35-2.42-1.05-3.17-.7-.76-1.68-1.14-2.93-1.14-.85,0-1.62.18-2.3.54-.67.36-1.2.89-1.58,1.6-.38.69-.57,1.53-.57,2.51Z" fill="#02060a"/>
  <rect width="39.72" height="39.72" rx="4" ry="4" fill="#f94d00"/>
  <rect x="17.02" y="15.76" width="5.85" height="16.39" rx="2.93" ry="2.93" fill="#fff"/>
  <rect x="17.02" y="7.57" width="5.85" height="5.85" rx="2.93" ry="2.93" fill="#fff"/>
</svg>