<svg width="170" height="40" viewBox="0 0 170 40" fill="none" xmlns="http://www.w3.org/2000/svg">
<path d="M54.4086 8.0341V32.7934H49.1738V8.0341H54.4086Z" fill="white"/>
<path d="M63.7689 22.0579V32.7934H58.6187V14.2239H63.5271V17.5002H63.7447C64.1557 16.4202 64.8448 15.5658 65.812 14.9372C66.7791 14.3005 67.9518 13.9821 69.33 13.9821C70.6196 13.9821 71.7439 14.2642 72.703 14.8284C73.6621 15.3926 74.4076 16.1985 74.9395 17.2463C75.4715 18.286 75.7374 19.5272 75.7374 20.9698V32.7934H70.5873V21.8887C70.5954 20.7522 70.3052 19.8657 69.7169 19.229C69.1285 18.5842 68.3185 18.2618 67.2869 18.2618C66.5938 18.2618 65.9812 18.4109 65.4493 18.7091C64.9254 19.0073 64.5144 19.4425 64.2162 20.0148C63.926 20.579 63.7769 21.26 63.7689 22.0579Z" fill="white"/>
<path d="M89.7824 14.2239V18.0926H78.3216V14.2239H89.7824ZM80.945 32.7934V12.882C80.945 11.536 81.2069 10.4198 81.7308 9.53319C82.2627 8.64663 82.9881 7.98171 83.9069 7.53843C84.8257 7.09515 85.8694 6.87351 87.0381 6.87351C87.8279 6.87351 88.5493 6.93396 89.2021 7.05485C89.863 7.17575 90.3546 7.28455 90.677 7.38127L89.7582 11.2499C89.5567 11.1854 89.3069 11.125 89.0087 11.0686C88.7185 11.0121 88.4203 10.9839 88.114 10.9839C87.3564 10.9839 86.8285 11.1612 86.5303 11.5159C86.2321 11.8624 86.083 12.35 86.083 12.9787V32.7934H80.945Z" fill="white"/>
<path d="M92.9287 32.7934V14.2239H98.0788V32.7934H92.9287ZM95.5158 11.8302C94.7502 11.8302 94.0933 11.5763 93.5452 11.0686C93.0052 10.5527 92.7352 9.93618 92.7352 9.21887C92.7352 8.50962 93.0052 7.90111 93.5452 7.39336C94.0933 6.87754 94.7502 6.61963 95.5158 6.61963C96.2815 6.61963 96.9343 6.87754 97.4743 7.39336C98.0224 7.90111 98.2964 8.50962 98.2964 9.21887C98.2964 9.93618 98.0224 10.5527 97.4743 11.0686C96.9343 11.5763 96.2815 11.8302 95.5158 11.8302Z" fill="white"/>
<path d="M111.247 14.2239V17.1254H101.104V14.2239H111.247ZM103.824 9.77499H107.439V27.341C107.439 28.0422 107.544 28.5701 107.753 28.9247C107.963 29.2713 108.233 29.5091 108.563 29.638C108.902 29.7589 109.269 29.8194 109.664 29.8194C109.954 29.8194 110.208 29.7992 110.425 29.7589C110.643 29.7186 110.812 29.6864 110.933 29.6622L111.586 32.6483C111.376 32.7289 111.078 32.8095 110.691 32.8901C110.304 32.9787 109.821 33.0271 109.24 33.0352C108.289 33.0513 107.403 32.882 106.581 32.5274C105.759 32.1728 105.094 31.6247 104.586 30.8832C104.078 30.1417 103.824 29.2108 103.824 28.0906V9.77499Z" fill="white"/>
<path d="M123.05 33.1681C121.22 33.1681 119.644 32.7772 118.323 31.9955C117.009 31.2056 115.993 30.0974 115.276 28.6709C114.567 27.2362 114.212 25.5558 114.212 23.6295C114.212 21.7275 114.567 20.051 115.276 18.6003C115.993 17.1496 116.993 16.0172 118.274 15.2032C119.564 14.3891 121.071 13.9821 122.796 13.9821C123.843 13.9821 124.859 14.1554 125.842 14.502C126.826 14.8485 127.708 15.3926 128.49 16.1341C129.272 16.8755 129.888 17.8387 130.34 19.0234C130.791 20.2002 131.017 21.6307 131.017 23.3152V24.5967H116.255V21.8887H127.474C127.474 20.9376 127.281 20.0954 126.894 19.3619C126.507 18.6205 125.963 18.0361 125.262 17.609C124.569 17.1818 123.755 16.9682 122.82 16.9682C121.804 16.9682 120.918 17.2181 120.16 17.7178C119.411 18.2094 118.83 18.8542 118.419 19.6521C118.016 20.4419 117.815 21.3003 117.815 22.2272V24.3428C117.815 25.584 118.032 26.6398 118.468 27.5103C118.911 28.3807 119.528 29.0456 120.317 29.505C121.107 29.9564 122.03 30.182 123.086 30.182C123.771 30.182 124.396 30.0853 124.96 29.8919C125.524 29.6904 126.012 29.3922 126.423 28.9973C126.834 28.6023 127.148 28.1147 127.366 27.5344L130.787 28.151C130.513 29.1585 130.021 30.041 129.312 30.7986C128.611 31.5482 127.728 32.1325 126.664 32.5516C125.609 32.9626 124.404 33.1681 123.05 33.1681Z" fill="white"/>
<path d="M142.849 33.1681C141.052 33.1681 139.504 32.7611 138.207 31.9471C136.917 31.125 135.926 29.9926 135.233 28.55C134.54 27.1073 134.193 25.455 134.193 23.5933C134.193 21.7073 134.548 20.043 135.257 18.6003C135.966 17.1496 136.966 16.0172 138.255 15.2032C139.545 14.3891 141.064 13.9821 142.813 13.9821C144.223 13.9821 145.481 14.2441 146.585 14.7679C147.689 15.2838 148.58 16.0091 149.257 16.944C149.942 17.879 150.349 18.9711 150.478 20.2203H146.96C146.766 19.3499 146.323 18.6003 145.63 17.9717C144.945 17.343 144.026 17.0287 142.873 17.0287C141.866 17.0287 140.983 17.2946 140.226 17.8266C139.476 18.3505 138.892 19.1 138.473 20.0752C138.054 21.0424 137.844 22.1869 137.844 23.5086C137.844 24.8627 138.05 26.0313 138.461 27.0146C138.872 27.9979 139.452 28.7595 140.202 29.2995C140.959 29.8395 141.85 30.1095 142.873 30.1095C143.558 30.1095 144.179 29.9846 144.735 29.7347C145.299 29.4768 145.771 29.1101 146.15 28.6346C146.536 28.1591 146.806 27.5868 146.96 26.9179H150.478C150.349 28.1188 149.958 29.1907 149.305 30.1337C148.652 31.0767 147.778 31.8181 146.682 32.3581C145.593 32.8981 144.316 33.1681 142.849 33.1681Z" fill="white"/>
<path d="M157.958 21.7678V32.7934H154.343V8.0341H157.91V17.2463H158.139C158.575 16.2469 159.239 15.453 160.134 14.8647C161.029 14.2763 162.197 13.9821 163.64 13.9821C164.913 13.9821 166.026 14.2441 166.977 14.7679C167.936 15.2918 168.677 16.0736 169.201 17.1133C169.733 18.1449 169.999 19.4345 169.999 20.9819V32.7934H166.384V21.4172C166.384 20.0551 166.034 18.9993 165.333 18.2497C164.631 17.4921 163.656 17.1133 162.407 17.1133C161.553 17.1133 160.787 17.2946 160.11 17.6573C159.441 18.02 158.913 18.552 158.526 19.2531C158.147 19.9463 157.958 20.7845 157.958 21.7678Z" fill="white"/>
<rect width="39.718" height="39.718" rx="4" fill="#F94D00"/>
<rect x="17.0215" y="15.7611" width="5.85412" height="16.3916" rx="2.92706" fill="white"/>
<rect x="17.0215" y="7.56531" width="5.85412" height="5.85413" rx="2.92706" fill="white"/>
</svg>
